<svg xmlns="http://www.w3.org/2000/svg" class="svg-icon icon icon_gesture_tap" viewBox="0 0 16 16"><path d="M9.95 8a3.437 3.437 0 0 0 1.232-2.625c0-1.933-1.628-3.5-3.637-3.5-2.008 0-3.636 1.567-3.636 3.5C3.91 6.42 4.385 7.359 5.14 8H3.91A4.25 4.25 0 0 1 3 5.375C3 2.959 5.035 1 7.545 1s4.546 1.959 4.546 4.375A4.25 4.25 0 0 1 11.182 8H9.951zm-3.325 7l-2.493-3.493c-.188-.158-.433-1.021.1-1.473.535-.45 1.304-.182 1.553.071l.84 1.395.011-6.125c0-.48.389-.875.89-.875.498 0 .901.4.901.875v3.5l3.768.967c.544.227.896.868.784 1.433L12.091 15H6.625z" fill-rule="nonzero"></path></svg>