<?xml version="1.0" standalone="no"?><!DOCTYPE svg PUBLIC "-//W3C//DTD SVG 1.1//EN" "http://www.w3.org/Graphics/SVG/1.1/DTD/svg11.dtd"><svg t="1634544758848" class="icon" viewBox="0 0 1024 1024" version="1.1" xmlns="http://www.w3.org/2000/svg" p-id="27976" xmlns:xlink="http://www.w3.org/1999/xlink" width="200" height="200"><defs><style type="text/css"></style></defs><path d="M109.714286 900.608h804.571428c25.234286 0 45.714286 18.358857 45.714286 41.106286 0 22.674286-20.48 41.179429-45.714286 41.179428h-804.571428c-25.234286 0-45.714286-18.432-45.714286-41.179428 0-22.674286 20.48-41.179429 45.714286-41.179429z m433.956571-645.632l-337.92 337.92v142.189714h142.189714l337.92-337.92-142.189714-142.189714z m58.148572-58.221714l142.262857 142.262857 58.148571-58.221714-142.189714-142.189715-58.221714 58.148572zM136.850286 545.426286L627.565714 54.564571a45.714286 45.714286 0 0 1 64.731429 0l193.901714 193.901715a45.714286 45.714286 0 0 1 0 64.658285l-490.788571 490.861715a45.714286 45.714286 0 0 1-32.402286 13.385143H169.106286a45.714286 45.714286 0 0 1-45.641143-45.714286V577.828571c0-12.141714 4.754286-23.771429 13.385143-32.329142z" p-id="27977"></path></svg>