<?xml version="1.0" standalone="no"?><!DOCTYPE svg PUBLIC "-//W3C//DTD SVG 1.1//EN" "http://www.w3.org/Graphics/SVG/1.1/DTD/svg11.dtd"><svg t="1636711072407" class="icon" viewBox="0 0 1024 1024" version="1.1" xmlns="http://www.w3.org/2000/svg" p-id="6734" xmlns:xlink="http://www.w3.org/1999/xlink" width="200" height="200"><defs><style type="text/css"></style></defs><path d="M835 480H194c-19.9 0-36 16.1-36 36s16.1 36 36 36h641c19.9 0 36-16.1 36-36s-16.1-36-36-36zM485.1 454.1c7 7 16.2 10.5 25.5 10.5 1.1 0 2.3-0.1 3.4-0.2 1.1 0.1 2.3 0.2 3.4 0.2 9.2 0 18.4-3.5 25.5-10.5l128.2-128.2c14.1-14.1 14.1-36.9 0-50.9-14.1-14.1-36.9-14.1-50.9 0L550 345.1V168c0-19.9-16.1-36-36-36s-36 16.1-36 36v177.2L407.8 275c-14.1-14.1-36.9-14.1-50.9 0-14.1 14.1-14.1 36.9 0 50.9l128.2 128.2zM540.8 572.5c-7.9-7.9-18.5-11.3-28.8-10.4-10.3-1-20.9 2.5-28.8 10.4L354.9 700.8c-14.1 14.1-14.1 36.9 0 50.9 7 7 16.2 10.5 25.5 10.5 9.2 0 18.4-3.5 25.5-10.5l70.2-70.2V859c0 19.9 16.1 36 36 36s36-16.1 36-36V681.6l70.1 70.1c7 7 16.2 10.5 25.5 10.5s18.4-3.5 25.5-10.5c14.1-14.1 14.1-36.9 0-50.9L540.8 572.5z" p-id="6735"></path></svg>