<?xml version="1.0" standalone="no"?><!DOCTYPE svg PUBLIC "-//W3C//DTD SVG 1.1//EN" "http://www.w3.org/Graphics/SVG/1.1/DTD/svg11.dtd"><svg t="1634548086001" class="icon" viewBox="0 0 1024 1024" version="1.1" xmlns="http://www.w3.org/2000/svg" p-id="48688" xmlns:xlink="http://www.w3.org/1999/xlink" width="200" height="200"><defs><style type="text/css"></style></defs><path d="M924.9 62.9H99.1c-19.3 0-35 15.7-35 35v640.2c0 19.3 15.7 35 35 35H477v117.5H291.3c-19.3 0-35 15.7-35 35s15.7 35 35 35h441.5c19.3 0 35-15.7 35-35s-15.7-35-35-35H547V773.1h377.9c19.3 0 35-15.7 35-35V97.9c0-19.3-15.7-35-35-35z m-35 70V557H134.1V132.9h755.8zM134.1 703.1v-76h755.8v76H134.1z" p-id="48689"></path></svg>