<svg t="1639646168803" class="icon" viewBox="0 0 1024 1024" version="1.1" xmlns="http://www.w3.org/2000/svg" p-id="720" width="200" height="200"><path d="M936 1024H88A88.096 88.096 0 0 1 0 936V88A88.096 88.096 0 0 1 88 0h848A88.096 88.096 0 0 1 1024 88v848A88.096 88.096 0 0 1 936 1024zM88 48A40.032 40.032 0 0 0 48 88v848a40.032 40.032 0 0 0 40 40h848a40.032 40.032 0 0 0 40-40V88a40.032 40.032 0 0 0-40-40z" fill="#e6e6e6" p-id="721"></path><path d="M332.256 373.312H154.144a24 24 0 0 1 0-48h171.2v-171.2a24 24 0 0 1 48 0v178.144a41.12 41.12 0 0 1-41.088 41.088z" fill="#e6e6e6" p-id="722"></path><path d="M349.312 893.856a24 24 0 0 1-24-24v-171.2h-171.2a24 24 0 0 1 0-48h178.144a41.12 41.12 0 0 1 41.088 41.088v178.112a24 24 0 0 1-24 24zM869.856 373.312h-178.112a41.12 41.12 0 0 1-41.088-41.056V154.144a24 24 0 0 1 48 0v171.2h171.2a24 24 0 0 1 0 48z" fill="#e6e6e6" p-id="723"></path><path d="M674.688 893.856a24 24 0 0 1-24-24v-178.112a41.12 41.12 0 0 1 41.056-41.088h178.112a24 24 0 0 1 0 48h-171.2v171.2a24 24 0 0 1-24 24z" fill="#e6e6e6" p-id="724"></path></svg>