<?xml version="1.0" standalone="no"?><!DOCTYPE svg PUBLIC "-//W3C//DTD SVG 1.1//EN" "http://www.w3.org/Graphics/SVG/1.1/DTD/svg11.dtd"><svg t="1639705978217" class="icon" viewBox="0 0 1024 1024" version="1.1" xmlns="http://www.w3.org/2000/svg" p-id="7476" xmlns:xlink="http://www.w3.org/1999/xlink" width="200" height="200"><defs><style type="text/css"></style></defs><path d="M981.333333 196.266667h-132.266666v-29.866667c0-25.6-17.066667-42.666667-42.666667-42.666667h-149.333333c-25.6 0-42.666667 17.066667-42.666667 42.666667v29.866667H42.666667c-25.6 0-42.666667 17.066667-42.666667 42.666666s17.066667 42.666667 42.666667 42.666667h576v29.866667c0 25.6 17.066667 42.666667 42.666666 42.666666H810.666667c25.6 0 42.666667-17.066667 42.666666-42.666666v-29.866667h128c25.6 0 42.666667-17.066667 42.666667-42.666667s-17.066667-42.666667-42.666667-42.666666z m-217.6 76.8h-64V209.066667h64v64zM981.333333 469.333333H307.2v-29.866666c0-25.6-17.066667-42.666667-42.666667-42.666667H115.2c-25.6 0-42.666667 17.066667-42.666667 42.666667v29.866666H42.666667c-25.6 0-42.666667 17.066667-42.666667 42.666667s17.066667 42.666667 42.666667 42.666667h29.866666v29.866666c0 25.6 17.066667 42.666667 42.666667 42.666667h149.333333c25.6 0 42.666667-17.066667 42.666667-42.666667V554.666667H981.333333c25.6 0 42.666667-17.066667 42.666667-42.666667s-17.066667-42.666667-42.666667-42.666667zM221.866667 541.866667H157.866667v-64h64v64zM981.333333 742.4h-354.133333v-29.866667c0-25.6-17.066667-42.666667-42.666667-42.666666h-149.333333c-25.6 0-42.666667 17.066667-42.666667 42.666666v29.866667H42.666667c-25.6 0-42.666667 17.066667-42.666667 42.666667s17.066667 42.666667 42.666667 42.666666h354.133333v29.866667c0 25.6 17.066667 42.666667 42.666667 42.666667h149.333333c25.6 0 42.666667-17.066667 42.666667-42.666667v-29.866667H981.333333c25.6 0 42.666667-17.066667 42.666667-42.666666s-17.066667-42.666667-42.666667-42.666667z m-439.466666 72.533333h-64v-64h64v64z" p-id="7477" fill="#e6e6e6"></path></svg>